<svg id="SvgjsSvg1006" width="720" height="637" xmlns="http://www.w3.org/2000/svg" version="1.1" xmlns:xlink="http://www.w3.org/1999/xlink" xmlns:svgjs="http://svgjs.com/svgjs"><defs id="SvgjsDefs1007"></defs><g id="SvgjsG1008" transform="translate(56,44)"><path id="SvgjsPath1009" d="M 0 0L 639 0L 639 568L 0 568Z" stroke="rgba(50,50,50,1)" stroke-width="2" fill-opacity="1" fill="#ffffff"></path><g id="SvgjsG1010"><text id="SvgjsText1011" font-family="微软雅黑" text-anchor="middle" font-size="13px" width="619px" fill="#323232" font-weight="400" align="middle" anchor="middle" family="微软雅黑" size="13px" weight="400" font-style="" opacity="1" y="274.05" transform="rotate(0)"></text></g></g><g id="SvgjsG1012" transform="translate(100,85)"><path id="SvgjsPath1013" d="M 0 0L 545 0L 545 85L 0 85Z" stroke="rgba(0,127,255,1)" stroke-width="2" fill-opacity="1" fill="#ffffff"></path><g id="SvgjsG1014"><text id="SvgjsText1015" font-family="微软雅黑" text-anchor="middle" font-size="13px" width="525px" fill="#323232" font-weight="400" align="middle" anchor="middle" family="微软雅黑" size="13px" weight="400" font-style="" opacity="1" y="32.55" transform="rotate(0)"></text></g></g><g id="SvgjsG1016" transform="translate(311.25,522)"><path id="SvgjsPath1017" d="M 0 4Q 0 0 4 0L 118.5 0Q 122.5 0 122.5 4L 122.5 35Q 122.5 39 118.5 39L 4 39Q 0 39 0 35Z" stroke="rgba(50,50,50,1)" stroke-width="2" fill-opacity="1" fill="#ffffff"></path><g id="SvgjsG1018"><text id="SvgjsText1019" font-family="微软雅黑" text-anchor="middle" font-size="13px" width="103px" fill="#323232" font-weight="400" align="middle" anchor="middle" family="微软雅黑" size="13px" weight="400" font-style="" opacity="1" y="9.55" transform="rotate(0)"><tspan id="SvgjsTspan1020" dy="16" x="61.5"><tspan id="SvgjsTspan1021" style="text-decoration:;">submit</tspan></tspan></text></g></g><g id="SvgjsG1022" transform="translate(100,215)"><path id="SvgjsPath1023" d="M 0 0L 545 0L 545 85L 0 85Z" stroke="rgba(0,127,255,1)" stroke-width="2" fill-opacity="1" fill="#ffffff"></path><g id="SvgjsG1024"><text id="SvgjsText1025" font-family="微软雅黑" text-anchor="middle" font-size="13px" width="525px" fill="#323232" font-weight="400" align="middle" anchor="middle" family="微软雅黑" size="13px" weight="400" font-style="" opacity="1" y="32.55" transform="rotate(0)"></text></g></g><g id="SvgjsG1026" transform="translate(100,355)"><path id="SvgjsPath1027" d="M 0 0L 545 0L 545 85L 0 85Z" stroke="rgba(0,127,255,1)" stroke-width="2" fill-opacity="1" fill="#ffffff"></path><g id="SvgjsG1028"><text id="SvgjsText1029" font-family="微软雅黑" text-anchor="middle" font-size="13px" width="525px" fill="#323232" font-weight="400" align="middle" anchor="middle" family="微软雅黑" size="13px" weight="400" font-style="" opacity="1" y="32.55" transform="rotate(0)"></text></g></g><g id="SvgjsG1030" transform="translate(135,118)"><path id="SvgjsPath1031" d="M 0 0L 360 0L 360 43L 0 43Z" stroke="rgba(255,0,0,1)" stroke-width="2" fill-opacity="1" fill="#ffffff"></path><g id="SvgjsG1032"><text id="SvgjsText1033" font-family="微软雅黑" text-anchor="middle" font-size="13px" width="340px" fill="#323232" font-weight="400" align="middle" anchor="middle" family="微软雅黑" size="13px" weight="400" font-style="" opacity="1" y="11.55" transform="rotate(0)"></text></g></g><g id="SvgjsG1034" transform="translate(132,387)"><path id="SvgjsPath1035" d="M 0 0L 360 0L 360 43L 0 43Z" stroke="rgba(255,0,0,1)" stroke-width="2" fill-opacity="1" fill="#ffffff"></path><g id="SvgjsG1036"><text id="SvgjsText1037" font-family="微软雅黑" text-anchor="middle" font-size="13px" width="340px" fill="#323232" font-weight="400" align="middle" anchor="middle" family="微软雅黑" size="13px" weight="400" font-style="" opacity="1" y="11.55" transform="rotate(0)"></text></g></g><g id="SvgjsG1038" transform="translate(132,250)"><path id="SvgjsPath1039" d="M 0 0L 360 0L 360 43L 0 43Z" stroke="rgba(255,0,0,1)" stroke-width="2" fill-opacity="1" fill="#ffffff"></path><g id="SvgjsG1040"><text id="SvgjsText1041" font-family="微软雅黑" text-anchor="middle" font-size="13px" width="340px" fill="#323232" font-weight="400" align="middle" anchor="middle" family="微软雅黑" size="13px" weight="400" font-style="" opacity="1" y="11.55" transform="rotate(0)"></text></g></g><g id="SvgjsG1042" transform="translate(25,25)"><path id="SvgjsPath1043" d="M 0 0L 120 0L 120 40L 0 40Z" stroke="none" fill="none"></path><g id="SvgjsG1044"><text id="SvgjsText1045" font-family="微软雅黑" text-anchor="middle" font-size="24px" width="120px" fill="#323232" font-weight="400" align="middle" anchor="middle" family="微软雅黑" size="24px" weight="400" font-style="" opacity="1" y="-15.6" transform="rotate(0)"><tspan id="SvgjsTspan1046" dy="30" x="60"><tspan id="SvgjsTspan1047" style="text-decoration:;">Form</tspan></tspan><tspan id="SvgjsTspan1048" dy="30" x="60"><tspan id="SvgjsTspan1049" style="text-decoration:;"> </tspan></tspan></text></g></g><g id="SvgjsG1050" transform="translate(93,62)"><path id="SvgjsPath1051" d="M 0 0L 120 0L 120 40L 0 40Z" stroke="none" fill="none"></path><g id="SvgjsG1052"><text id="SvgjsText1053" font-family="微软雅黑" text-anchor="middle" font-size="24px" width="120px" fill="#007fff" font-weight="400" align="middle" anchor="middle" family="微软雅黑" size="24px" weight="400" font-style="" opacity="1" y="-15.6" transform="rotate(0)"><tspan id="SvgjsTspan1054" dy="30" x="60"><tspan id="SvgjsTspan1055" style="text-decoration:;">FormItem</tspan></tspan><tspan id="SvgjsTspan1056" dy="30" x="60"><tspan id="SvgjsTspan1057" style="text-decoration:;"> </tspan></tspan></text></g></g><g id="SvgjsG1058" transform="translate(103,85)"><path id="SvgjsPath1059" d="M 0 0L 120 0L 120 40L 0 40Z" stroke="none" fill="none"></path><g id="SvgjsG1060"><text id="SvgjsText1061" font-family="微软雅黑" text-anchor="middle" font-size="24px" width="120px" fill="#ff3333" font-weight="400" align="middle" anchor="middle" family="微软雅黑" size="24px" weight="400" font-style="" opacity="1" y="-0.5999999999999996" transform="rotate(0)"><tspan id="SvgjsTspan1062" dy="30" x="60"><tspan id="SvgjsTspan1063" style="text-decoration:;">Input</tspan></tspan></text></g></g><g id="SvgjsG1064" transform="translate(93,196)"><path id="SvgjsPath1065" d="M 0 0L 120 0L 120 40L 0 40Z" stroke="none" fill="none"></path><g id="SvgjsG1066"><text id="SvgjsText1067" font-family="微软雅黑" text-anchor="middle" font-size="24px" width="120px" fill="#007fff" font-weight="400" align="middle" anchor="middle" family="微软雅黑" size="24px" weight="400" font-style="" opacity="1" y="-15.6" transform="rotate(0)"><tspan id="SvgjsTspan1068" dy="30" x="60"><tspan id="SvgjsTspan1069" style="text-decoration:;">FormItem</tspan></tspan><tspan id="SvgjsTspan1070" dy="30" x="60"><tspan id="SvgjsTspan1071" style="text-decoration:;"> </tspan></tspan></text></g></g><g id="SvgjsG1072" transform="translate(100,332)"><path id="SvgjsPath1073" d="M 0 0L 120 0L 120 40L 0 40Z" stroke="none" fill="none"></path><g id="SvgjsG1074"><text id="SvgjsText1075" font-family="微软雅黑" text-anchor="middle" font-size="24px" width="120px" fill="#007fff" font-weight="400" align="middle" anchor="middle" family="微软雅黑" size="24px" weight="400" font-style="" opacity="1" y="-15.6" transform="rotate(0)"><tspan id="SvgjsTspan1076" dy="30" x="60"><tspan id="SvgjsTspan1077" style="text-decoration:;">FormItem</tspan></tspan><tspan id="SvgjsTspan1078" dy="30" x="60"><tspan id="SvgjsTspan1079" style="text-decoration:;"> </tspan></tspan></text></g></g><g id="SvgjsG1080" transform="translate(97,215)"><path id="SvgjsPath1081" d="M 0 0L 120 0L 120 40L 0 40Z" stroke="none" fill="none"></path><g id="SvgjsG1082"><text id="SvgjsText1083" font-family="微软雅黑" text-anchor="middle" font-size="24px" width="120px" fill="#ff3333" font-weight="400" align="middle" anchor="middle" family="微软雅黑" size="24px" weight="400" font-style="" opacity="1" y="-0.5999999999999996" transform="rotate(0)"><tspan id="SvgjsTspan1084" dy="30" x="60"><tspan id="SvgjsTspan1085" style="text-decoration:;">Input</tspan></tspan></text></g></g><g id="SvgjsG1086" transform="translate(97,355)"><path id="SvgjsPath1087" d="M 0 0L 120 0L 120 40L 0 40Z" stroke="none" fill="none"></path><g id="SvgjsG1088"><text id="SvgjsText1089" font-family="微软雅黑" text-anchor="middle" font-size="24px" width="120px" fill="#ff3333" font-weight="400" align="middle" anchor="middle" family="微软雅黑" size="24px" weight="400" font-style="" opacity="1" y="-0.5999999999999996" transform="rotate(0)"><tspan id="SvgjsTspan1090" dy="30" x="60"><tspan id="SvgjsTspan1091" style="text-decoration:;">Input</tspan></tspan></text></g></g></svg>